<?xml version="1.0" encoding="UTF-8" standalone="no"?>
<svg
   xmlns:dc="http://purl.org/dc/elements/1.1/"
   xmlns:cc="http://creativecommons.org/ns#"
   xmlns:rdf="http://www.w3.org/1999/02/22-rdf-syntax-ns#"
   xmlns:svg="http://www.w3.org/2000/svg"
   xmlns="http://www.w3.org/2000/svg"
   xmlns:sodipodi="http://sodipodi.sourceforge.net/DTD/sodipodi-0.dtd"
   xmlns:inkscape="http://www.inkscape.org/namespaces/inkscape"
   inkscape:version="0.92.4 5da689c313, 2019-01-14"
   sodipodi:docname="start.svg"
   version="1.1"
   id="svg2"
   viewBox="0 0 54 32">
  <sodipodi:namedview
     inkscape:current-layer="svg2"
     inkscape:window-maximized="1"
     inkscape:window-y="24"
     inkscape:window-x="46"
     inkscape:cy="-7.8261206"
     inkscape:cx="2.5266186"
     inkscape:zoom="5.3203126"
     showgrid="true"
     id="namedview17"
     inkscape:window-height="718"
     inkscape:window-width="1320"
     inkscape:pageshadow="2"
     inkscape:pageopacity="0"
     guidetolerance="10"
     gridtolerance="10"
     objecttolerance="10"
     borderopacity="1"
     inkscape:document-rotation="0"
     bordercolor="#666666"
     pagecolor="#ffffff">
    <inkscape:grid
       id="grid842"
       type="xygrid" />
  </sodipodi:namedview>
  <metadata
     id="metadata21">
    <rdf:RDF>
      <cc:Work
         rdf:about="">
        <dc:format>image/svg+xml</dc:format>
        <dc:type
           rdf:resource="http://purl.org/dc/dcmitype/StillImage" />
        <dc:title />
      </cc:Work>
    </rdf:RDF>
  </metadata>
  <defs
     id="defs3051">
    <style
       id="current-color-scheme"
       type="text/css">
      .ColorScheme-Text {
        color:#31363b;
      }
      </style>
  </defs>
  <g
     transform="translate(0,13)"
     id="16-16-start-here-kde">
    <path
       id="path17"
       d="M -16,3 V 19 H 0 V 3 Z"
       style="opacity:1;fill:none"
       inkscape:connector-curvature="0" />
    <path
       style="opacity:1;fill:#ff005f;fill-opacity:1;stroke:none;stroke-width:2.5;stroke-linecap:butt;stroke-linejoin:round;stroke-miterlimit:4;stroke-dasharray:none;stroke-opacity:1"
       d="m -10.493508,2.999999 c 0,0 -2.001236,3.469987 -2.001236,4.465635 0,0.996468 0.894067,1.804545 2.001236,1.804545 1.1038381,0 1.9987641,-0.808077 1.9987641,-1.804545 0,-0.995648 -1.9987641,-4.465635 -1.9987641,-4.465635 z m 4.9795927,0 c 0,0 -2.0009388,3.469987 -2.0012372,4.465635 0,0.996468 0.8961904,1.804545 2.0012372,1.804545 1.1041374,0 2.0012371,-0.808077 2.0012371,-1.804545 0,-0.995648 -2.0012371,-4.465635 -2.0012371,-4.465635 z M -15.473099,6.80315 c 0,0 -0.526901,3.471397 -0.526901,4.467865 0,0.995648 0.896188,1.804813 2.001236,1.804546 1.104138,0 2.001237,-0.808898 2.001237,-1.804546 0,-0.995375 -3.475572,-4.467865 -3.475572,-4.467865 z m 14.94867063,0 c 0,0 -3.47804673,3.471397 -3.47804673,4.467865 0,0.995376 0.8961914,1.804545 2.0012372,1.804546 1.1038357,0 2.0018614,-0.80917 2.00123702,-1.804546 0,-0.995374 -0.52442749,-4.467865 -0.52442749,-4.467865 z M -7.814471,10.722292 c -1.7402322,0 -2.05605,1.396686 -3.097095,2.480412 -0.831439,0.865447 -2.577611,1.139361 -2.577611,2.656629 0,1.981451 2.541561,3.140666 5.674706,3.140667 3.1340542,0 5.6722317,-1.159487 5.6722317,-3.140667 0,-1.663332 -1.7550783,-1.865971 -2.6790346,-2.763697 -1.036798,-1.008504 -1.3345628,-2.373344 -2.9931971,-2.373344 z"
       id="rect869"
       inkscape:connector-curvature="0"
       sodipodi:nodetypes="cssscccssccscsccscccscssscs" />
  </g>
  <g
     id="22-22-start-here-kde"
     transform="translate(1,-1)">
    <rect
       y="11"
       x="-1"
       height="22"
       width="22"
       id="rect4150"
       style="opacity:0;fill:#553fff;fill-opacity:1;stroke:none" />
    <path
       style="opacity:1;fill:#ff005f;fill-opacity:1;stroke:none;stroke-width:2.5;stroke-linecap:butt;stroke-linejoin:round;stroke-miterlimit:4;stroke-dasharray:none;stroke-opacity:1"
       d="m 7.5064922,13.999999 c 0,0 -2.0012361,3.469987 -2.0012361,4.465635 0,0.996468 0.8940671,1.804545 2.0012361,1.804545 1.1038382,0 1.9987641,-0.808077 1.9987641,-1.804545 0,-0.995648 -1.9987641,-4.465635 -1.9987641,-4.465635 z m 4.9795928,0 c 0,0 -2.000939,3.469987 -2.001237,4.465635 0,0.996468 0.89619,1.804545 2.001237,1.804545 1.104137,0 2.001238,-0.808077 2.001238,-1.804545 0,-0.995648 -2.001238,-4.465635 -2.001238,-4.465635 z M 2.526901,17.80315 c 0,0 -0.526901,3.471397 -0.526901,4.467865 0,0.995648 0.896188,1.804813 2.0012361,1.804546 1.104138,0 2.0012371,-0.808898 2.0012371,-1.804546 0,-0.995375 -3.4755722,-4.467865 -3.4755722,-4.467865 z m 14.948672,0 c 0,0 -3.478047,3.471397 -3.478047,4.467865 0,0.995376 0.896191,1.804545 2.001237,1.804546 1.103836,0 2.001861,-0.80917 2.001237,-1.804546 0,-0.995374 -0.524427,-4.467865 -0.524427,-4.467865 z m -7.290044,3.919142 c -1.7402319,0 -2.0560497,1.396686 -3.0970948,2.480412 -0.831439,0.865447 -2.5776111,1.139361 -2.5776111,2.656629 0,1.981451 2.5415611,3.140666 5.6747059,3.140667 3.134054,0 5.672233,-1.159487 5.672233,-3.140667 0,-1.663332 -1.755079,-1.865971 -2.679036,-2.763697 -1.036798,-1.008504 -1.334563,-2.373344 -2.993197,-2.373344 z"
       id="rect869-8"
       inkscape:connector-curvature="0"
       sodipodi:nodetypes="cssscccssccscsccscccscssscs" />
  </g>
  <g
     id="start-here-kde"
     transform="translate(-46,-1)">
    <rect
       y="1"
       x="68"
       height="32"
       width="32"
       id="rect3343"
       style="fill:none;fill-rule:evenodd;stroke:none;stroke-width:1px;stroke-linecap:butt;stroke-linejoin:miter;stroke-opacity:1" />
    <path
       style="opacity:1;fill:#ff005f;fill-opacity:1;stroke:none;stroke-width:0.97899592;stroke-linecap:square;stroke-linejoin:miter;stroke-miterlimit:4;stroke-dasharray:none;stroke-opacity:1"
       d="M 83.999632,5 C 90.627023,5 96,10.372406 96,17.000001 96,23.627598 90.627023,29 83.999632,29 77.372241,29 72,23.627598 72,17.000001 72,10.372406 77.372241,5 83.999632,5 Z m -1.968945,5.008118 c 0,0 -1.580762,3.038164 -1.580762,3.909964 0,0.872518 0.706595,1.580812 1.580762,1.580812 0.871536,0 1.579288,-0.708294 1.579288,-1.580812 0,-0.8718 -1.579288,-3.909964 -1.579288,-3.909964 z m 3.931984,0 c 0,0 -1.57979,3.038164 -1.580025,3.909964 0,0.872518 0.707534,1.580812 1.580025,1.580812 0.871772,0 1.580026,-0.708294 1.580026,-1.580812 0,-0.8718 -1.580026,-3.909964 -1.580026,-3.909964 z m -7.863965,3.32989 c 0,0 -0.414748,3.038921 -0.414748,3.911439 0,0.8718 0.707534,1.580309 1.580025,1.580074 0.871773,0 1.580026,-0.708274 1.580026,-1.580074 0,-0.871561 -2.745303,-3.911439 -2.745303,-3.911439 z m 11.803328,0 c 0,0 -2.746041,3.038921 -2.746041,3.911439 0,0.871561 0.708272,1.580813 1.580762,1.580813 0.871534,0 1.579041,-0.709252 1.578549,-1.580813 0,-0.87156 -0.41327,-3.911439 -0.41327,-3.911439 z m -5.756282,3.432473 c -1.374001,0 -1.622986,1.222296 -2.444943,2.171218 -0.656464,0.757794 -2.034624,0.997662 -2.034624,2.326198 0,1.734979 2.005791,2.750554 4.479567,2.750554 2.474495,0 4.47883,-1.015813 4.47883,-2.750554 0,-1.456431 -1.386291,-1.634606 -2.115802,-2.420664 -0.818604,-0.883057 -1.053452,-2.076752 -2.363028,-2.076752 z"
       id="rect974"
       inkscape:connector-curvature="0"
       sodipodi:nodetypes="ssssscssscccssccscsccssccscssscs" />
  </g>
</svg>
