<?xml version="1.0" encoding="UTF-8" standalone="no"?>
<svg
   xmlns:dc="http://purl.org/dc/elements/1.1/"
   xmlns:cc="http://creativecommons.org/ns#"
   xmlns:rdf="http://www.w3.org/1999/02/22-rdf-syntax-ns#"
   xmlns:svg="http://www.w3.org/2000/svg"
   xmlns="http://www.w3.org/2000/svg"
   xmlns:sodipodi="http://sodipodi.sourceforge.net/DTD/sodipodi-0.dtd"
   xmlns:inkscape="http://www.inkscape.org/namespaces/inkscape"
   id="svg2"
   viewBox="0 0 54 128"
   version="1.1"
   sodipodi:docname="system.svg"
   inkscape:version="0.92.4 5da689c313, 2019-01-14">
  <metadata
     id="metadata102">
    <rdf:RDF>
      <cc:Work
         rdf:about="">
        <dc:format>image/svg+xml</dc:format>
        <dc:type
           rdf:resource="http://purl.org/dc/dcmitype/StillImage" />
      </cc:Work>
    </rdf:RDF>
  </metadata>
  <defs
     id="defs100">
    <style
       id="style949"
       type="text/css">
   .ColorScheme-Text { color:#808080; }
  </style>
  </defs>
  <sodipodi:namedview
     pagecolor="#ffffff"
     bordercolor="#666666"
     borderopacity="1"
     objecttolerance="10"
     gridtolerance="10"
     guidetolerance="10"
     inkscape:pageopacity="0"
     inkscape:pageshadow="2"
     inkscape:window-width="1320"
     inkscape:window-height="718"
     id="namedview98"
     showgrid="true"
     inkscape:zoom="11.313708"
     inkscape:cx="53.393762"
     inkscape:cy="13.41235"
     inkscape:window-x="46"
     inkscape:window-y="24"
     inkscape:window-maximized="1"
     inkscape:current-layer="22-22-system-lock-screen">
    <inkscape:grid
       type="xygrid"
       id="grid947" />
  </sodipodi:namedview>
  <style
     type="text/css"
     id="current-color-scheme">
        .ColorScheme-Text {
            color:#232629;
        }
    </style>
  <g
     id="22-22-system-log-out">
    <path
       id="path9"
       d="M 0,10 V 32 H 22 V 10 Z"
       inkscape:connector-curvature="0"
       style="fill:none" />
    <g
       id="g955"
       transform="translate(-419.88643,-518.79074)"
       style="stroke:#a6e22e;stroke-width:1.10000002;stroke-linecap:round;stroke-linejoin:round;stroke-miterlimit:4;stroke-dasharray:none;stroke-opacity:1">
      <path
         id="path953"
         d="m 426.71429,539.79074 1.95349,-1.875 4.29767,-4.125 0.13024,0.125 0.39069,0.375 0.22791,0.21875 -4.29768,4.125 -1.23721,1.15625 1.23721,1.15625 4.29768,4.125 -0.74884,0.71875 -4.29767,-4.125 z"
         class="ColorScheme-Text"
         inkscape:connector-curvature="0"
         style="color:#808080;fill:currentColor;stroke:#a6e22e;stroke-width:1.10000002;stroke-linecap:round;stroke-linejoin:round;stroke-miterlimit:4;stroke-dasharray:none;stroke-opacity:1" />
    </g>
  </g>
  <g
     id="system-log-out">
    <path
       id="path12"
       d="m38 4a12 12 0 0 0-12 12 12 12 0 0 0 12 12 12 12 0 0 0 12-12 12 12 0 0 0-12-12zm0 1a11 11 0 0 1 11 11 11 11 0 0 1-11 11 11 11 0 0 1-11-11 11 11 0 0 1 11-11zm3.269531 3-8.269531 8 8.269531 8 0.730469-0.707031-7.539062-7.292969 7.539062-7.2929688z"
       class="ColorScheme-Text"
       fill="currentColor" />
    <path
       id="path14"
       d="m22 0v32h32v-32z"
       fill="none" />
  </g>
  <g
     id="22-22-system-lock-screen"
     transform="translate(54,96)">
    <path
       id="path17"
       d="m 11,13.969887 c -2.2271218,0 -4.0200754,1.567715 -4.0200754,3.515056 V 21 C 6,21 5,21 5,23 L 4.982235,25.967394 C 5,27 5,28 7,28 h 8 c 1,0 2,0 2,-2 v -3 c 0,-2 -1,-2 -1.979928,-2 v -3.515057 c 0,-1.947341 -1.792953,-3.515056 -4.020075,-3.515056 z M 11,16 c 1.670341,0 2,0.220402 2,1.924325 V 21 H 9.0161934 V 17.924325 C 9.0161934,16.220402 9.3296587,16 11,16 Z m -4,7 h 8 v 3 H 7 Z"
       class="ColorScheme-Text"
       inkscape:connector-curvature="0"
       style="color:#232629;fill:#a6e22e;fill-opacity:1;stroke:none;stroke-width:0.93977368;stroke-opacity:1"
       sodipodi:nodetypes="ssccccccccssscccsscccccc" />
    <path
       id="path19"
       d="M 0,10 V 32 H 22 V 10 Z"
       inkscape:connector-curvature="0"
       style="fill:none" />
  </g>
  <g
     id="system-lock-screen"
     transform="translate(54 96)">
    <path
       id="path22"
       d="m38 4c-6.627417 0-12 5.372583-12 12s5.372583 12 12 12 12-5.372583 12-12-5.372583-12-12-12zm0 1c6.075132 0 11 4.9248678 11 11 0 6.075132-4.924868 11-11 11s-11-4.924868-11-11c0-6.0751322 4.924868-11 11-11zm0 3c-2.216 0-4 1.784-4 4v4h-2v8h12v-8h-2v-4c0-2.216-1.784-4-4-4zm0 1c1.662 0 3 1.561 3 3.5v3.5h-6v-3.5c0-1.939 1.338-3.5 3-3.5zm-5 8h10v6h-10z"
       class="ColorScheme-Text"
       fill="currentColor" />
    <path
       id="path24"
       d="m22 0v32h32v-32z"
       fill="none" />
  </g>
  <g
     id="22-22-system-reboot"
     transform="translate(54,64)">
    <path
       id="path29"
       d="M 0,10 V 32 H 22 V 10 Z"
       inkscape:connector-curvature="0"
       style="fill:none" />
    <path
       class="ColorScheme-Text"
       d="m 11,14.411765 c -1.1872941,0 -2.3083207,0.304006 -3.2683821,0.849264 l 0.5919117,0.566177 0.051471,0.05147 2.2647054,2.290441 0.591912,-0.591913 -2.0588234,-2.033088 C 9.7478909,15.350918 10.357972,15.235294 11,15.235294 c 3.193622,0 5.764706,2.5711 5.764706,5.764706 0,0.957353 -0.233779,1.8578 -0.643383,2.650735 l 0.617647,0.617647 C 17.28419,23.308312 17.588235,22.187241 17.588235,21 17.588235,17.350076 14.649855,14.411765 11,14.411765 Z M 5.2610295,17.731618 C 4.7158109,18.691688 4.4117647,19.812759 4.4117647,21 c 0,3.649924 2.938381,6.588235 6.5882353,6.588235 1.187294,0 2.308322,-0.304006 3.268383,-0.849264 l -0.566177,-0.566177 -0.05147,-0.05147 -2.290442,-2.290441 -0.566176,0.591911 2.033088,2.033089 C 12.252109,26.649082 11.642029,26.764706 11,26.764706 c -3.1936221,0 -5.7647058,-2.5711 -5.7647058,-5.764706 0,-0.957353 0.2337803,-1.8578 0.6433824,-2.650735 z"
       id="path984"
       inkscape:connector-curvature="0"
       style="color:#808080;fill:#62d8f1;fill-opacity:1;stroke:#62d8f1;stroke-width:0.82352942;stroke-opacity:1" />
  </g>
  <g
     id="system-reboot"
     transform="translate(54 64)">
    <path
       id="path32"
       d="m38 4a12 12 0 0 0 -6.083984 1.671875l5.376953 5.378906.707031-.710937-4.404297-4.4042971a11 11 0 0 1 4.404297-.9355469 11 11 0 0 1 11 11 11 11 0 0 1 -1.404297 5.351562l.732422.728516a12 12 0 0 0 1.671875-6.080078 12 12 0 0 0 -12-12zm-10.328125 5.9160156a12 12 0 0 0 -1.671875 6.0839844 12 12 0 0 0 12 12 12 12 0 0 0 6.083984-1.671875l-5.376953-5.378906-.707031.707031 4.40625 4.404297a11 11 0 0 1 -4.40625.939453 11 11 0 0 1 -11-11 11 11 0 0 1 1.404297-5.351562z"
       class="ColorScheme-Text"
       fill="currentColor" />
    <path
       id="path34"
       d="m22 0v32h32v-32z"
       fill="none" />
  </g>
  <g
     id="22-22-system-save-session"
     transform="translate(112 32)">
    <path
       id="path37"
       d="m2.999995 13.003509v15.9999h16.000005v-12.69915h-.007l.007-.015-3.29297-3.29295-.008.015v-.015h-12.69922zm1.000005 1.00185h3v5.0001h8v-5.0001h.29298l2.70702 2.70705v11.29305h-2v-7.00005h-10.000005v7.00005h-1.999995zm4.000005 0h3.90039v4.00005h-3.90039zm-1.000005 8.0001h8v6h-8z"
       class="ColorScheme-Text"
       fill="currentColor" />
    <path
       id="path39"
       d="m0 10v22h22v-22z"
       fill="none" />
  </g>
  <g
     id="system-save-session"
     transform="translate(112 32)">
    <path
       id="path42"
       d="m26 4v24h24v-18l-6-6h-12zm1 1h5v8h11v-8h.585938l5.414062 5.414062v16.585938h-4v-8h-14v8h-4zm6 0h6v7h-6zm-1 15h12v7h-12z"
       class="ColorScheme-Text"
       fill="currentColor" />
    <path
       id="path44"
       d="m22 0v32h32v-32z"
       fill="none" />
  </g>
  <g
     id="22-22-system-shutdown"
     transform="translate(0,32)">
    <path
       id="path49"
       d="M 0,10 V 32 H 22 V 10 Z"
       inkscape:connector-curvature="0"
       style="fill:none" />
    <g
       id="g913"
       font-weight="400"
       style="font-weight:400;font-family:sans-serif;fill:#ff005f;fill-opacity:1"
       transform="translate(3,13)">
      <path
         id="path909"
         overflow="visible"
         d="M 1,7.92 A 6.94,6.94 0 0 0 1.324,10.121 7.004,7.004 0 0 0 8,15 7.004,7.004 0 0 0 14.676,10.121 6.978,6.978 0 0 0 12.014,2.303 l -1.145,1.64 a 4.96,4.96 0 0 1 1.9,5.575 A 4.99,4.99 0 0 1 8,13 4.99,4.99 0 0 1 3.23,9.518 4.96,4.96 0 0 1 5.13,3.943 L 3.986,2.303 A 6.985,6.985 0 0 0 1,7.92 Z"
         inkscape:connector-curvature="0"
         style="overflow:visible;fill:#ff005f;fill-opacity:1" />
      <path
         id="path911"
         overflow="visible"
         d="M 7,1 V 8 H 9 V 1 Z"
         inkscape:connector-curvature="0"
         style="overflow:visible;fill:#ff005f;fill-opacity:1"
         sodipodi:nodetypes="ccccc" />
    </g>
  </g>
  <g
     id="system-shutdown"
     transform="translate(0 32)">
    <path
       id="path52"
       d="m37 4v9h2v-9h-1zm3 0.1699219v1.0214843a11 11 0 0 1 9 10.808594 11 11 0 0 1-11 11 11 11 0 0 1-11-11 11 11 0 0 1 9-10.810547v-1.0078125a12 12 0 0 0-10 11.818359 12 12 0 0 0 12 12 12 12 0 0 0 12-12 12 12 0 0 0-10-11.830078z"
       class="ColorScheme-Text"
       fill="currentColor" />
    <path
       id="path54"
       d="m22 0v32h32v-32z"
       fill="none" />
  </g>
  <g
     id="22-22-system-suspend-hibernate"
     transform="translate(0 64)">
    <path
       id="path49-1"
       d="m0 10v22h22v-22z"
       fill="none" />
    <g
       class="ColorScheme-Text"
       fill="currentColor"
       id="g39">
      <path
         id="path1248"
         transform="translate(0 -64)"
         d="m6.7890625 77.707031-.8671875.5 1.6464844 2.84961-2.2480469-.601563-.2597656.966797 3.2148437.861328 1.5703125 2.716797h-3.1386719l-2.3535156-2.353516-.7070312.707032 1.6464844 1.646484h-3.2929688v1h3.2929688l-1.6464844 1.646484.7070312.707032 2.3535156-2.353516h3.1328126l-1.5664063 2.712891-3.2148437.861328.2578124.966797 2.25-.603516-1.6464843 2.851562.8652343.5 1.6464844-2.851562.6035156 2.25.9648438-.259766-.8613281-3.216796 1.8554691-3.210938h.005859l1.857422 3.21875-.861328 3.214844.966797.257812.601562-2.248047 1.646485 2.851563.867187-.5-1.646484-2.851563 2.248047.601563.259765-.964844-3.214844-.861328-1.570312-2.71875h3.138672l2.353515 2.353516.707032-.707032-1.646485-1.646484h3.292969v-1h-3.292969l1.646485-1.646484-.050782-.058594h-1.302734l-1.707031 1.705078h-1.292969-1.84375-1.15625v-.001953l-.003906-.001953-1.8535159-3.212891.8613279-3.214844-.9667966-.259765-.6015625 2.25z" />
      <g
         id="g37">
        <path
           id="rect887-61"
           d="m16 13v1h2.292969l-2 2-.292969.29297v.70703h4v-1h-2.292969l2-2 .292969-.29297v-.70703h-.707031z" />
        <path
           id="rect887-8"
           d="m11 15v1h2.292969l-2 2-.292969.29297v.70703h4v-1h-2.292969l2-2 .292969-.29297v-.70703h-.707031z" />
      </g>
    </g>
  </g>
  <g
     id="system-suspend-hibernate"
     transform="translate(0 64)">
    <path
       id="path1280"
       transform="translate(0 -64)"
       d="m31.789062 69.242188-.867187.5 2.146484 3.716796-3.615234-.96875-.257813.966797 4.580079 1.226563 3.068359 5.316406h-6.136719l-3.353515-3.353516-.707032.707032 2.646485 2.646484h-4.292969v1h4.292969l-2.646485 2.646484.707032.707032 3.353515-3.353516h6.136719l-3.068359 5.316406-4.580079 1.226563.257813.966797 3.615234-.96875-2.146484 3.716796.867187.5 2.146485-3.716796.96875 3.615234.964844-.259766-1.226563-4.580078 3.357422-5.816406 3.357422 5.816406-1.226563 4.580078.964844.259766.96875-3.615234 2.146485 3.716796.867187-.5-2.146484-3.716796 3.615234.96875.257813-.966797-4.580079-1.226563-3.068359-5.316406h6.136719l3.353515 3.353516.707032-.707032-2.646485-2.646484h4.292969v-1h-4.292969l2.646485-2.646484-.707032-.707032-3.353515 3.353516h-4.292969-1.84375-1.15625v-.001953l-3.357422-5.814453 1.226563-4.580078-.964844-.259766-.96875 3.615234z"
       class="ColorScheme-Text"
       fill="currentColor" />
    <path
       id="path64"
       d="m22 0v32h32v-32z"
       fill="none" />
    <g
       class="ColorScheme-Text"
       fill="currentColor"
       id="g47">
      <path
         id="rect887-7"
         d="m45 4v1h2.292969l-2 2-.292969.29297v.70703h4v-1h-2.292969l2-2 .292969-.29297v-.70703h-.707031z" />
      <path
         id="rect887-9"
         d="m42 10v1h2.292969l-2 2-.292969.29297v.70703h4v-1h-2.292969l2-2 .292969-.29297v-.70703h-.707031z" />
      <path
         id="rect887-2"
         d="m38 5v1h2.292969l-2 2-.292969.29297v.70703h4v-1h-2.292969l2-2 .292969-.29297v-.70703h-.707031z" />
    </g>
  </g>
  <g
     id="22-22-system-suspend"
     transform="translate(0,96)">
    <g
       style="color:#232629;fill:currentColor"
       id="g994"
       class="ColorScheme-Text">
      <g
         id="g992"
         style="fill:#62d8f1;fill-opacity:1">
        <path
           inkscape:connector-curvature="0"
           d="m 10,16 v 1 h 2.292969 l -2,2 L 10,19.29297 V 20 h 4 v -1 h -2.292969 l 2,-2 L 14,16.70703 V 16 h -0.707031 z"
           id="path988"
           style="fill:#ff9700;fill-opacity:1" />
        <path
           inkscape:connector-curvature="0"
           d="m 15,13 v 1 h 2.292969 l -2,2 L 15,16.29297 V 17 h 4 v -1 h -2.292969 l 2,-2 L 19,13.70703 V 13 h -0.707031 z"
           id="path990"
           style="fill:#ff9700;fill-opacity:1;stroke:none;stroke-opacity:1" />
      </g>
    </g>
    <path
       id="path69"
       d="M 0,10 V 32 H 21.999999 V 10 Z"
       inkscape:connector-curvature="0"
       style="fill:none" />
    <g
       class="ColorScheme-Text"
       id="g56"
       style="color:#232629;fill:#62d8f1;fill-opacity:1;stroke:#62d8f1;stroke-opacity:1">
      <path
         inkscape:connector-curvature="0"
         d="M 7.046875,14.04883 A 7.9949791,8 0 0 0 3,21 a 7.9949791,8 0 0 0 7.994141,8 7.9949791,8 0 0 0 6.9375,-4.04297 7.9949791,8 0 0 0 0.0098,-0.006 L 17.20316,24.21275 a 6.9956067,7 0 0 1 -0.0039,0.006 A 6.9956067,7 0 0 1 13.992188,25 6.9956067,7 0 0 1 6.9980469,18 6.9956067,7 0 0 1 7.7832031,14.78711 Z M 6.3027344,15.82031 A 7.9949791,8 0 0 0 5.9980469,18 7.9949791,8 0 0 0 13.992188,26 7.9949791,8 0 0 0 16.179688,25.6875 6.9956067,7 0 0 1 10.994141,28 6.9956067,7 0 0 1 4,21 6.9956067,7 0 0 1 6.3027344,15.82031 Z"
         id="path986"
         style="color:#232629;fill:#ff9700;fill-opacity:1;stroke:#ff9700;stroke-linecap:round;stroke-linejoin:round;stroke-opacity:1" />
      <g
         id="g54"
         style="fill:#62d8f1;fill-opacity:1;stroke:#62d8f1;stroke-opacity:1" />
    </g>
  </g>
  <g
     id="system-suspend"
     transform="translate(0,96)">
    <path
       id="path74"
       d="M 22,0 V 32 H 54 V 0 Z"
       inkscape:connector-curvature="0"
       style="fill:none" />
    <g
       class="ColorScheme-Text"
       id="g64"
       style="color:#232629;fill:currentColor">
      <path
         id="path1336"
         transform="translate(0,-96)"
         d="m 31.761719,101.76172 a 12,12 0 0 0 -0.0039,0.008 A 12,12 0 0 0 26,112 a 12,12 0 0 0 12,12 12,12 0 0 0 10.238281,-5.76172 l -0.732422,-0.73242 A 11,11 0 0 1 42,119 11,11 0 0 1 31,108 a 11,11 0 0 1 1.486328,-5.50195 11,11 0 0 1 0.0078,-0.004 z m -0.960938,1.93945 A 12,12 0 0 0 30,108 12,12 0 0 0 42,120 12,12 0 0 0 46.326172,119.17969 11,11 0 0 1 38,123 11,11 0 0 1 27,112 a 11,11 0 0 1 3.800781,-8.29883 z"
         inkscape:connector-curvature="0"
         style="stroke-width:0.92307699" />
      <path
         id="rect887-75"
         d="m 44,6 v 1 h 2.292969 l -2,2 L 44,9.29297 V 10 h 4 V 9 h -2.292969 l 2,-2 L 48,6.70703 V 6 h -0.707031 z"
         inkscape:connector-curvature="0" />
      <path
         id="rect887-35"
         d="m 42,13 v 1 h 2.292969 l -2,2 L 42,16.29297 V 17 h 4 v -1 h -2.292969 l 2,-2 L 46,13.70703 V 13 h -0.707031 z"
         inkscape:connector-curvature="0" />
      <path
         id="rect887-35-2"
         d="m 36,8 v 1 h 2.292969 l -2,2 L 36,11.29297 V 12 h 4 v -1 h -2.292969 l 2,-2 L 40,8.70703 V 8 h -0.707031 z"
         inkscape:connector-curvature="0" />
    </g>
  </g>
  <g
     id="22-22-system-switch-user"
     transform="translate(54)">
    <path
       id="path890"
       d="m11.397745 12.388c-1.989467 0-3.2205625 1.263525-3.397744 2.799v1.018l-2.1510319-1.520183-.8489679.663037 2.5469046 1.989109.8489677.663037.8489679-.663037 2.5469046-1.989109-.848968-.663037-1.942777 1.520183v-1.018c0-1.035581 1.06462-1.798637 2.397544-1.799 1.332927.000363 2.621.763585 2.602456 1.799v.813h1v-.813327c0-1.545664-1.612785-2.798673-3.602253-2.798673zm2.602256 4.612c-1.10457 0-2 .895431-2 2 0 1.10457.89543 2 2 2 1.104569 0 2-.89543 2-2 0-1.104569-.895431-2-2-2zm-6.0000009 2a1.999999 2 0 0 0 -2.0000001 2 1.999999 2 0 0 0 2.0000001 2 1.999999 2 0 0 0 1.9999999-2 1.999999 2 0 0 0 -1.9999999-2zm6.0156249 3c-1.518796 0-2.764244 1.163057-2.978516 2.671875.582869.662142.962891 1.328125.962891 2.328125h4.429688c.393221-.54062.60674-1.198565.607421-1.875.000001-1.72589-1.35224-3.125-3.021484-3.125zm-.04883 1c1.102577 0 1.996096.839466 1.996094 1.875-.00045.405861-.14066.800628-.400391 1.125h-2.820312c-.085645-.538511-.357189-1.019889-.742186-1.398438.141532-.90529.963596-1.601562 1.966797-1.601562zm-5.966795 1a2.9999989 3.1249983 0 0 0 -3 3.125 2.9999989 3.1249983 0 0 0 .605469 1.875h4.792969a2.9999989 3.1249983 0 0 0 .601562-1.875 2.9999989 3.1249983 0 0 0 -3-3.125zm0 1a2.0000009 2.2500008 0 0 1 2 2.25 2.0000009 2.2500008 0 0 1 -.117188.75h-3.765624a2.0000009 2.2500008 0 0 1 -.117188-.75 2.0000009 2.2500008 0 0 1 2-2.25z"
       class="ColorScheme-Text"
       fill="currentColor" />
    <path
       id="path79"
       d="m0 10v22h22v-22z"
       fill="none" />
  </g>
  <g
     id="system-switch-user"
     transform="translate(54)">
    <path
       id="path84"
       d="m22 0v32h32v-32z"
       fill="none" />
    <path
       id="path1011"
       transform="translate(-54)"
       d="m94 8c-1.285847 0-2.416677.617761-3.148438 1.5605469.329275.112144.645954.2508111.945313.4179687.548377-.5974024 1.328275-.9785156 2.203125-.9785156 1.656852 0 3 1.343147 3 3 0 1.398728-.960744 2.564273-2.255859 2.896484.000621.03481.0059.06856.0059.103516 0 .318095-.03235.627594-.08203.931641 1.889594-.319204 3.331989-1.951186 3.331989-3.931641 0-2.209138-1.790858-4-4-4zm-5 12c-3.881058 0-7 2.689616-7 6.435547.0033.527414.06906 1.051937.198034 1.564453h1.111737 11.662458.884292c.128998-.512516.140592-1.036586.143479-1.564 0-3.745931-3.118942-6.436-7-6.436zm.027.992c3.813868 0 5.973 2.274365 5.973 5.444-.0011.174256-.01135.347611-.029.521h-11.942c-.01765-.173389-.02741-.347197-.029-.521453 0-3.169635 2.179706-5.443547 5.972735-5.443547zm6.224205-3.992043c-.25686 0-.509035.01606-.758429.04297-.12585.383697-.291433.751062-.492776 1.097662.410411-.09117.830028-.138336 1.251205-.140627 3.153826.000001 5.710515 2.46245 5.710515 5.500033-.0009.166968-.009.333807-.0264.500003h-4.53029c.108739.321192.202605.648801.269709.986334l5.134641.013668c.12388-.491162.18785-.994566.19062-1.500008 0-3.589871-3.02155-6.500039-6.748795-6.500038zm-6.251205-5.999957c-2.209143 0-4 1.790862-4 4 0 2.20914 1.790857 4.000001 4 4 2.209142.000001 4-1.79086 4-4 0-2.209138-1.790858-4-4-4zm0 1c1.656852 0 3 1.343147 3 3 0 1.656854-1.343148 3.000001-3 3-1.656852.000001-3-1.343146-3-3 0-1.656853 1.343148-3 3-3zm3.027-8.2000013c-2.034737 0-3.684211 1.6454851-3.684211 3.6752924v.6152839l-1.606789-1.702575-.613.7429525 2.233 2.2270475.644.642.582-.742672 2.064-2.227328-.644-.6417091-1.707 1.7027091v-.616c0-1.449863 1.278621-2.6249178 2.732-2.6249178s1.973.519045 1.973 1.968908h1c0-2.1001672-1.116912-2.9799129-2.973-3.0189915z"
       class="ColorScheme-Text"
       fill="currentColor" />
  </g>
  <g
     id="22-22-system-users"
     transform="translate(54 32)">
    <path
       id="path87"
       d="m13.999995 12.999864c-1.661999 0-3 1.338-3 3s1.338001 3 3 3 3-1.338 3-3-1.338001-3-3-3zm-6 3c-1.661999 0-3 1.338-3 3s1.338001 3 3 3 3-1.338 3-3-1.338001-3-3-3zm6 4c-.646349 0-1.255999.134093-1.818359.361328l.455078.914063c.427816-.1605.877758-.275391 1.363281-.275391 2.216023 0 4 1.783975 4 4h-3.5l.5 1h4v-1c0-2.77002-2.229982-5-5-5zm-6 3c-2.770018 0-5 2.22998-5 5v1h10v-1c0-2.77002-2.229982-5-5-5zm0 1c2.216008 0 4 1.783975 4 4h-8c0-2.216025 1.783977-4 4-4z"
       class="ColorScheme-Text"
       fill="currentColor" />
    <path
       id="path89"
       d="m0 10v22h22v-22z"
       fill="none" />
  </g>
  <g
     id="system-users"
     transform="translate(54 32)">
    <path
       id="path92"
       d="m42.5 4a4.5 4.5 0 0 0 -4.5 4.5 4.5 4.5 0 0 0 4.5 4.5 4.5 4.5 0 0 0 4.5-4.5 4.5 4.5 0 0 0 -4.5-4.5zm0 1a3.5 3.5 0 0 1 3.5 3.5 3.5 3.5 0 0 1 -3.5 3.5 3.5 3.5 0 0 1 -3.5-3.5 3.5 3.5 0 0 1 3.5-3.5zm-9 4c-2.485281 0-4.5 2.014719-4.5 4.5s2.014719 4.5 4.5 4.5 4.5-2.014719 4.5-4.5-2.014719-4.5-4.5-4.5zm0 1a3.5 3.5 0 0 1 3.5 3.5 3.5 3.5 0 0 1 -3.5 3.5 3.5 3.5 0 0 1 -3.5-3.5 3.5 3.5 0 0 1 3.5-3.5zm9 4c-.88285.003-1.758266.172285-2.585938.5-.06618.423679-.174132.839768-.322265 1.242188.90271-.487309 1.89843-.741421 2.908203-.742188 3.589851 0 6.5 3.134007 6.5 7h-8.341797c.170323.323289.325499.657112.464844 1h8.876953v-1c0-4.418278-3.357864-8-7.5-8zm-9 5c-4.142136 0-7.5 3.581722-7.5 8v1h15v-1c0-4.418278-3.357864-8-7.5-8zm0 1c3.589851 0 6.5 3.134007 6.5 7h-13c0-3.865993 2.910149-7 6.5-7z"
       class="ColorScheme-Text"
       fill="currentColor" />
    <path
       id="path94"
       d="m22 0v32h32v-32z"
       fill="none" />
  </g>
  <g
     id="22-22-system-search"
     transform="translate(0,-32)">
    <path
       id="path61"
       d="m 9.0436321,13.492795 c -3.0908353,0 -5.5791173,2.483882 -5.5791173,5.569242 0,3.085371 2.488282,5.569244 5.5791173,5.569244 1.3773039,0 2.6320259,-0.496293 3.6031809,-1.31617 l 5.037914,5.028999 0.657434,-0.656271 -5.037914,-5.028999 c 0.821327,-0.969428 1.318502,-2.221933 1.318502,-3.596803 0,-3.08536 -2.488281,-5.569242 -5.5791169,-5.569242 z m 0,0.928207 c 2.5756969,0 4.6492649,2.069902 4.6492649,4.641035 0,2.571144 -2.073568,4.641036 -4.6492649,4.641036 -2.5756969,0 -4.6492644,-2.069892 -4.6492644,-4.641036 0,-2.571133 2.0735675,-4.641035 4.6492644,-4.641035 z"
       class="ColorScheme-Text"
       inkscape:connector-curvature="0"
       style="color:#232629;fill:#ff9700;fill-opacity:1;stroke:#ff9700;stroke-width:0.92902964;stroke-opacity:1" />
    <path
       id="path63"
       d="M 0,10 V 32 H 22 V 10 Z"
       inkscape:connector-curvature="0"
       style="fill:none" />
  </g>
  <g
     id="system-search"
     transform="translate(0 -32)">
    <path
       id="path66"
       d="m35 4a9 9 0 0 0-9 9 9 9 0 0 0 9 9 9 9 0 0 0 5.994141-2.298828l8.298828 8.298828 0.707031-0.707031-8.300781-8.300782a9 9 0 0 0 2.300781-5.992187 9 9 0 0 0-9-9zm0 1a8 8 0 0 1 8 8 8 8 0 0 1-8 8 8 8 0 0 1-8-8 8 8 0 0 1 8-8z"
       class="ColorScheme-Text"
       fill="currentColor" />
    <path
       id="path68"
       d="m22 0v32h32v-32z"
       fill="none" />
  </g>
  <g
     id="system-user-list"
     transform="translate(108)">
    <path
       id="path110"
       d="m45 9c-.58947 0-1.13295.174573-1.59375.46875.04318.464252.0075.922667-.008 1.335882.377107-.505852.970803-.804092 1.60175-.804632 1.104569 0 2 .895431 2 2s-.895431 2-2 2c-1.040548-.000556-1.906833-.798896-1.99219-1.835938-.184344.419479-.464656.770321-.6956 1.09959-.001.0013-.003.0026-.004.0039.476 1.019727 1.48876 1.732448 2.69179 1.732448 1.66119 0 2.99805-1.338 2.99805-3s-1.33686-3-2.99805-3zm-6.99999 9c4.43203 0 7.99999 3.56798 7.99999 8h-16c0-4.43202 3.56798-8 8.00001-8zm.00001-1c-4.98557 0-9.00002 3.716633-9.00002 8.333333v1.666667h18v-1.666667c0-4.6167-4.01443-8.333333-8.99998-8.333333zm6.97654-1c-1.26188.000488-2.39619.47884-3.27539 1.240234.380034.156147.766084.335754 1.142399.50783.005.0025.009.0052.0137.0078.615311-.44993 1.333211-.755864 2.117341-.755864 2.22686.00005 4.02344 2.337992 4.02344 4h-2.72852c.196162.339095.301576.64811.449 1h3.28147v-1c0-2.769366-2.2402-4.998947-5.02148-5zm-6.97656-10.0000005c2.20915 0 4 1.7908576 4 4.0000005 0 2.209141-1.79085 4-4 4s-4-1.790859-4-4c0-2.2091429 1.79085-4.0000005 4-4.0000005zm0-1c-2.76144 0-5 2.2385703-5 5.0000005 0 2.76143 2.23856 5 5 5 2.350785 0 4.322665-1.622301 4.857137-3.808418.093361-.381871.142863-.780945.142863-1.191582 0-2.7614302-2.23858-5.0000005-5-5.0000005zm-6.97656 11.0000005c1.26188.000488 2.39619.47884 3.27539 1.240234-.404465.162919-.805479.355411-1.156104.515606-.615306-.449906-1.333206-.75584-2.117336-.75584-2.22686.00005-4.02344 2.337992-4.02344 4h2.72852c-.186972.33326-.318326.689701-.449 1h-3.28147v-1c0-2.769366 2.2402-4.998947 5.02148-5zm-.02539-7c.58947 0 1.13295.174573 1.59375.46875-.04841.460072-.0093.927542.008 1.33588-.377107-.50585-.970803-.80409-1.60175-.80463-1.104569 0-2 .895431-2 2s.895431 2 2 2c1.040548-.000556 1.906833-.798896 1.99219-1.835938.188312.402683.471649.770111.6956 1.09959.001.0013.003.0026.004.0039-.476 1.019727-1.48876 1.732448-2.69179 1.732448-1.66119 0-2.99805-1.338-2.99805-3s1.33686-2.999999 2.99805-3z"
       class="ColorScheme-Text"
       fill="currentColor" />
    <path
       id="path84-3"
       d="m22 0v32h32v-32z"
       fill="none" />
  </g>
  <g
     id="system-user-prompt"
     transform="translate(112 64)">
    <path
       id="path44-5"
       d="m22 0v32h32v-32z"
       fill="none" />
    <path
       id="path889"
       d="m37 10.75v1.5h5v-1.5zm-4 0v1.5h3v-1.5zm-6 0v1.5h5v-1.5zm-1-1.75h24v5h-24zm-1-1v7h26v-7zm1 10h24v5h-24zm-1-1v7h26v-7zm3.5 2c-.828427 0-1.5.671573-1.5 1.5s.671573 1.5 1.5 1.5 1.5-.671573 1.5-1.5-.671573-1.5-1.5-1.5zm4 0c-.828427 0-1.5.671573-1.5 1.5s.671573 1.5 1.5 1.5 1.5-.671573 1.5-1.5-.671573-1.5-1.5-1.5zm4 0c-.828427 0-1.5.671573-1.5 1.5s.671573 1.5 1.5 1.5 1.5-.671573 1.5-1.5-.671573-1.5-1.5-1.5zm4 0c-.828427 0-1.5.671573-1.5 1.5s.671573 1.5 1.5 1.5 1.5-.671573 1.5-1.5-.671573-1.5-1.5-1.5z"
       class="ColorScheme-Text"
       fill="currentColor" />
  </g>
  <g
     id="22-22-system-user-prompt"
     transform="matrix(.6875 0 0 .6875 96.875 74)"
     stroke-width="1.454546">
    <path
       id="path909-5"
       d="m35.818183 21.09091a.72727275.72727275 0 0 1 -.727272.727273.72727275.72727275 0 0 1 -.727273-.727273.72727275.72727275 0 0 1 .727273-.727273.72727275.72727275 0 0 1 .727272.727273zm-2.181818 0a.72727275.72727275 0 0 1 -.727273.727273.72727275.72727275 0 0 1 -.727272-.727273.72727275.72727275 0 0 1 .727272-.727273.72727275.72727275 0 0 1 .727273.727273zm-2.181818 0a.72727275.72727275 0 0 1 -.727273.727273.72727275.72727275 0 0 1 -.727273-.727273.72727275.72727275 0 0 1 .727273-.727273.72727275.72727275 0 0 1 .727273.727273zm-2.181818 0a.72727275.72727275 0 0 1 -.727273.727273.72727275.72727275 0 0 1 -.727273-.727273.72727275.72727275 0 0 1 .727273-.727273.72727275.72727275 0 0 1 .727273.727273zm5.81818-10.909091h2.909091v1.454545h-2.909091zm-2.909091 0h1.454545v1.454545h-1.454545zm-4.363635 0h2.909091v1.454545h-2.909091zm-2.909091 7.272727v7.272728h26.181819v-7.272728zm1.454546 1.454546h23.272728v4.363636h-23.272728zm-1.454541-11.6363575v7.2727275h26.181819v-7.2727275zm1.454546 1.4545455h23.272728v4.363637h-23.272728z"
       class="ColorScheme-Text"
       fill="currentColor" />
    <path
       id="path44-5-7"
       d="m22 0v32h32v-32z"
       fill="none" />
  </g>
  <g
     id="22-22-system-user-list"
     transform="matrix(.6875 0 0 .6875 92.875 10)"
     stroke-width="1.454546">
    <path
       id="path340-1-2"
       d="m44.552119 10.181819c-.374531 0-.720437.103636-1.028408.269887.000189.0019-.09527.05843-.09498.06047.114764 1.452661-.249454 2.376872-.665091 3.098603.396059.563505 1.048422.934682 1.788481.934682 1.025803 0 1.886094-.707989 2.119316-1.661932.04073-.166636.06255-.340697.06255-.519887-.000014-1.204987-.976843-2.181818-2.181818-2.181818zm-13.097528 0c.374531 0 .720436.103636 1.028407.269887-.000189.0019.09527.05843.09498.06047-.114764 1.452661.249455 2.376872.665091 3.098603-.396058.563505-1.048422.934682-1.78848.934682-1.025804 0-1.886095-.707989-2.119317-1.661932-.04073-.166636-.06254-.340697-.06254-.519887.000014-1.204987.976844-2.181818 2.181818-2.181818zm-.000044 5.818168c1.226473 0 2.302211.565518 2.960233 1.477273-.369265.195739-.745004.436224-1.070982.630662-.358356-.422659-1.025004-.65339-1.889251-.65339-1.309454 0-2.18182.960799-2.18182 2.909104h1.818182l-.727273 1.454546h-2.545454l.000001-2.21024c.000001-2.093049 1.622008-3.607955 3.636364-3.607955zm13.09091.000014c-1.226473 0-2.302211.565519-2.960233 1.477273.369265.19574.745004.436224 1.070982.630662.358356-.422659 1.025003-.653389 1.889251-.653389 1.309454 0 2.181816.993887 2.181816 2.909089h-1.818182l.727273 1.454546h2.545454l.000002-2.210225c.000002-2.093049-1.622007-3.607956-3.636363-3.607956zm-6.545457 2.90909c2.909091 0 5.818182 1.454545 5.818182 5.818182h-11.636364c0-4.363637 2.909091-5.818182 5.818182-5.818182zm0-1.454546c-4.230226 0-7.261221 2.974329-7.269818 7.272728l-.0029 1.454545h14.545454l-.0029-1.454545c-.00866-4.321312-3.039625-7.272728-7.269836-7.272728zm.000075-11.6363628c-2.81168 0-5.090953 2.2792686-5.090953 5.0909048 0 2.811643 2.279273 5.090914 5.090953 5.090914 2.393556 0 4.401294-1.651796 4.945498-3.877663.09498-.388814.145469-.795143.145469-1.213251 0-2.8116362-2.279316-5.0909048-5.090967-5.0909048z"
       class="ColorScheme-Text"
       fill="currentColor" />
    <path
       id="path84-3-7"
       d="m22 0v32h32v-32z"
       fill="none" />
  </g>
</svg>
