<?xml version="1.0" encoding="UTF-8" standalone="no"?>
<svg
   xmlns:dc="http://purl.org/dc/elements/1.1/"
   xmlns:cc="http://creativecommons.org/ns#"
   xmlns:rdf="http://www.w3.org/1999/02/22-rdf-syntax-ns#"
   xmlns:svg="http://www.w3.org/2000/svg"
   xmlns="http://www.w3.org/2000/svg"
   xmlns:sodipodi="http://sodipodi.sourceforge.net/DTD/sodipodi-0.dtd"
   xmlns:inkscape="http://www.inkscape.org/namespaces/inkscape"
   height="24"
   width="24"
   version="1.1"
   id="svg20"
   sodipodi:docname="folder24.svg"
   inkscape:version="0.92.4 5da689c313, 2019-01-14"><metadata
   id="metadata26">
  <rdf:RDF>
    <cc:Work
       rdf:about="">
      <dc:format>image/svg+xml</dc:format>
      <dc:type
         rdf:resource="http://purl.org/dc/dcmitype/StillImage" />
      <dc:title></dc:title>
    </cc:Work>
  </rdf:RDF>
</metadata>
<defs
   id="defs24" />
<sodipodi:namedview
   pagecolor="#ffffff"
   bordercolor="#666666"
   borderopacity="1"
   objecttolerance="10"
   gridtolerance="10"
   guidetolerance="10"
   inkscape:pageopacity="0"
   inkscape:pageshadow="2"
   inkscape:window-width="1366"
   inkscape:window-height="718"
   id="namedview22"
   showgrid="true"
   inkscape:zoom="19.666667"
   inkscape:cx="10.782052"
   inkscape:cy="11.139909"
   inkscape:window-x="0"
   inkscape:window-y="24"
   inkscape:window-maximized="1"
   inkscape:current-layer="svg20"
   showguides="true"
   inkscape:guide-bbox="true">
  <inkscape:grid
     type="xygrid"
     id="grid833" />
  <sodipodi:guide
     position="45,6"
     orientation="-0.70710678,0.70710678"
     id="guide835"
     inkscape:locked="false" />
  <sodipodi:guide
     position="4,5"
     orientation="0.70710678,0.70710678"
     id="guide837"
     inkscape:locked="false" />
</sodipodi:namedview>
<path
   d="M 4.1809044,1.0005 C 0.49999999,1 0.0058186,3.0000002 0.0058186,5.5685001 V 13.832 C 0.0058186,10.257 0.39460459,9 4.1809044,9 H 9.3524998 L 11.115049,8 h 8.700344 c 3.688442,0.086 4.151812,0.6475001 4.173499,3.965 V 7.5550001 C 23.988892,3.9820002 23.602513,2.9574907 19.813277,3 H 10.498281 L 9,1 H 4.1809044 Z"
   id="path2"
   inkscape:connector-curvature="0"
   style="fill:#8ec227;stroke-width:1"
   sodipodi:nodetypes="cscsccccsscccc" />
<path
   d="M 4.1766729,10 C 0.38772814,10 0,10.8335 0,14.288 V 19 c 0,3.5 0.49999999,4 3.9999999,4 H 20 c 3.5,0 4,-0.5 4,-4 v -6.2765 c 1e-6,-3.455 -0.391431,-3.6385 -4.180904,-3.7234999 H 11.2145 L 9.5004998,10 Z"
   id="path4"
   inkscape:connector-curvature="0"
   style="fill:#8ec227;stroke-width:1"
   sodipodi:nodetypes="ssccccscccs" />

</svg>
