<?xml version="1.0" encoding="UTF-8" standalone="no"?>
<svg
   xmlns:dc="http://purl.org/dc/elements/1.1/"
   xmlns:cc="http://creativecommons.org/ns#"
   xmlns:rdf="http://www.w3.org/1999/02/22-rdf-syntax-ns#"
   xmlns:svg="http://www.w3.org/2000/svg"
   xmlns="http://www.w3.org/2000/svg"
   xmlns:sodipodi="http://sodipodi.sourceforge.net/DTD/sodipodi-0.dtd"
   xmlns:inkscape="http://www.inkscape.org/namespaces/inkscape"
   height="32"
   width="32"
   version="1.1"
   id="svg20"
   sodipodi:docname="folder32.svg"
   inkscape:version="0.92.4 5da689c313, 2019-01-14"><metadata
   id="metadata26">
  <rdf:RDF>
    <cc:Work
       rdf:about="">
      <dc:format>image/svg+xml</dc:format>
      <dc:type
         rdf:resource="http://purl.org/dc/dcmitype/StillImage" />
      <dc:title></dc:title>
    </cc:Work>
  </rdf:RDF>
</metadata>
<defs
   id="defs24" />
<sodipodi:namedview
   pagecolor="#ffffff"
   bordercolor="#666666"
   borderopacity="1"
   objecttolerance="10"
   gridtolerance="10"
   guidetolerance="10"
   inkscape:pageopacity="0"
   inkscape:pageshadow="2"
   inkscape:window-width="1366"
   inkscape:window-height="718"
   id="namedview22"
   showgrid="true"
   inkscape:zoom="11.313708"
   inkscape:cx="9.0800125"
   inkscape:cy="14.981487"
   inkscape:window-x="0"
   inkscape:window-y="24"
   inkscape:window-maximized="1"
   inkscape:current-layer="svg20"
   showguides="true"
   inkscape:guide-bbox="true">
  <inkscape:grid
     type="xygrid"
     id="grid833" />
  <sodipodi:guide
     position="45,6"
     orientation="-0.70710678,0.70710678"
     id="guide835"
     inkscape:locked="false" />
  <sodipodi:guide
     position="4,5"
     orientation="0.70710678,0.70710678"
     id="guide837"
     inkscape:locked="false" />
</sodipodi:namedview>
<path
   d="M 5.5745393,3.0006665 C 0.66666666,2.9999895 0.00775815,4.3333341 0.00775815,7.7580012 V 18.776001 C 0.00775815,14.009334 0.52613952,13 5.5745393,13 H 12.47 l 2.350065,-2 h 11.600459 c 4.917923,0.114666 5.535749,0.863338 5.564665,5.286667 V 10.406668 C 31.985189,5.6426676 31.470334,5 26.417702,5 H 13.997708 L 11.711188,3 H 5.5745393 Z"
   id="path2"
   inkscape:connector-curvature="0"
   style="fill:#8ec227;stroke-width:1"
   sodipodi:nodetypes="cscsccccsscccc" />
<path
   d="M 5.5688974,14 C 0.5169709,14 0,14.778001 0,19.384001 v 6.282666 c 0,4.666667 0.66666666,5.333334 5.3333331,5.333334 H 26.666666 C 31.333333,31.000001 32,30.333334 32,25.666667 V 17.298001 C 32.000001,12.691334 31.478092,12.113334 26.425461,12 H 14.952667 l -2.285334,2 z"
   id="path4"
   inkscape:connector-curvature="0"
   style="fill:#8ec227;stroke-width:1"
   sodipodi:nodetypes="ssccccscccs" />


</svg>
