<?xml version="1.0" encoding="UTF-8" standalone="no"?>
<svg
   xmlns:dc="http://purl.org/dc/elements/1.1/"
   xmlns:cc="http://creativecommons.org/ns#"
   xmlns:rdf="http://www.w3.org/1999/02/22-rdf-syntax-ns#"
   xmlns:svg="http://www.w3.org/2000/svg"
   xmlns="http://www.w3.org/2000/svg"
   xmlns:sodipodi="http://sodipodi.sourceforge.net/DTD/sodipodi-0.dtd"
   xmlns:inkscape="http://www.inkscape.org/namespaces/inkscape"
   height="48"
   width="48"
   version="1.1"
   id="svg20"
   sodipodi:docname="z.svg"
   inkscape:version="0.92.4 5da689c313, 2019-01-14"><metadata
   id="metadata26">
  <rdf:RDF>
    <cc:Work
       rdf:about="">
      <dc:format>image/svg+xml</dc:format>
      <dc:type
         rdf:resource="http://purl.org/dc/dcmitype/StillImage" />
    </cc:Work>
  </rdf:RDF>
</metadata>
<defs
   id="defs24" />
<sodipodi:namedview
   pagecolor="#ffffff"
   bordercolor="#666666"
   borderopacity="1"
   objecttolerance="10"
   gridtolerance="10"
   guidetolerance="10"
   inkscape:pageopacity="0"
   inkscape:pageshadow="2"
   inkscape:window-width="1366"
   inkscape:window-height="718"
   id="namedview22"
   showgrid="true"
   inkscape:zoom="9.8333333"
   inkscape:cx="11.000865"
   inkscape:cy="11.616186"
   inkscape:window-x="0"
   inkscape:window-y="24"
   inkscape:window-maximized="1"
   inkscape:current-layer="svg20"
   showguides="true"
   inkscape:guide-bbox="true">
  <inkscape:grid
     type="xygrid"
     id="grid833" />
  <sodipodi:guide
     position="45,6"
     orientation="-0.70710678,0.70710678"
     id="guide835"
     inkscape:locked="false" />
  <sodipodi:guide
     position="4,5"
     orientation="0.70710678,0.70710678"
     id="guide837"
     inkscape:locked="false" />
</sodipodi:namedview>
<path
   d="M 8.361809,5.001 C 1,5 0.0116372,7 0.0116372,12.137 v 16.527 c 0,-7.15 0.77795179,-7.739841 8.3501718,-7.664 H 18.705 l 3.525098,-3 h 17.400688 c 7.376885,0.172 8.303624,0.295 8.346998,6.93 V 16.11 C 47.977784,8.964 47.205502,8 39.626554,8 H 20.996562 L 17.566782,5 H 8.361809 Z"
   id="path2"
   inkscape:connector-curvature="0"
   style="fill:#8ec227;stroke-width:1"
   sodipodi:nodetypes="cscsccccsscccc" />
<path
   d="M 8.353346,22 C 0.7754563,22 0,22.667 0,29.576 L 0,39 c 0,7 1,8 8,8 h 32 c 7,0 8,-1 8,-8 l 10e-7,-12.553 c 1e-6,-6.91 -0.782862,-7.277 -8.361809,-7.447 H 22.429 l -3.428,3 z"
   id="path4"
   inkscape:connector-curvature="0"
   style="fill:#8ec227;stroke-width:1"
   sodipodi:nodetypes="ssccccscccs" />
</svg>
